<?xml version="1.0" encoding="UTF-8"?>
<svg id="Layer_2" data-name="Layer 2" xmlns="http://www.w3.org/2000/svg" viewBox="0 0 318.43 72.91">
  <g id="Layer_1-2" data-name="Layer 1">
    <path d="m54.34,0c14.75,0,25.16,9.71,25.16,9.71l-9.14,11.14s-6.31-5.4-16.02-5.4c-7.81,0-10.59,3.07-10.59,6.17,0,4.1,4.05,5.6,10.24,6.24,12.58,1.3,28.79,7.27,28.79,20.83,0,18.36-11.57,24.22-27.38,24.22-19.26,0-28.44-10.53-32.42-14.28l10.37-12.03s10.34,10.74,21.23,10.74c7.13,0,9.75-2.86,9.75-6.14,0-5.12-5.3-7.56-15.95-8.73s-22.7-5.15-22.7-19.43S35.03,0,54.34,0Z"/>
    <rect x="256.65" y="53.71" width="61.79" height="16.65"/>
    <rect x="256.65" y="28.05" width="61.79" height="16.65"/>
    <rect x="256.65" y="2.38" width="61.79" height="16.65"/>
    <polygon points="140.29 2.38 84.77 2.38 84.77 19.07 104.19 19.07 104.19 70.53 120.87 70.53 120.87 19.07 140.29 19.07 140.29 2.38"/>
    <polygon points="200.19 70.53 219.6 70.53 179.15 2.38 163.18 2.38 146.49 2.38 146.49 19.07 146.49 70.53 163.18 70.53 163.18 19.07 169.53 19.07 200.19 70.53"/>
    <path d="m250,24.62h0c0-12.37-10.03-22.4-22.4-22.4h-37.45l8.9,15h28.54c4.08,0,7.4,3.32,7.4,7.4s-3.32,7.4-7.4,7.4h-19.76l8.9,15h0l13.86,23.35h19.4l-15.13-24.56c8.8-3.02,15.13-11.36,15.13-21.19Z"/>
    <circle cx="8.41" cy="8.41" r="8.41"/>
  </g>
</svg>